<svg fill="none" xmlns="http://www.w3.org/2000/svg"
 width="1242.000000pt" height="1259.000000pt" 
 >

<g transform="translate(0.000000,1259.000000) scale(0.100000,-0.100000)"
fill="#000000" stroke="none">
<path d="M0 6295 l0 -6295 6210 0 6210 0 0 6295 0 6295 -6210 0 -6210 0 0
-6295z m6510 5396 c93 -6 145 -13 167 -25 18 -9 52 -16 76 -16 27 0 49 -6 57
-15 7 -8 27 -15 44 -15 18 0 41 -7 52 -15 10 -8 31 -15 47 -15 16 0 27 -5 27
-14 0 -8 15 -17 35 -20 19 -4 35 -11 35 -16 0 -4 13 -11 29 -15 16 -3 32 -13
35 -21 3 -8 16 -14 30 -14 13 0 26 -7 30 -15 3 -8 12 -15 21 -15 8 0 15 -4 15
-9 0 -5 10 -13 23 -17 12 -3 30 -14 39 -23 25 -23 44 -39 97 -79 25 -19 60
-50 76 -68 17 -19 36 -34 43 -34 6 0 12 -7 12 -15 0 -8 7 -15 15 -15 8 0 15
-7 15 -15 0 -7 6 -18 13 -22 13 -8 38 -39 67 -83 8 -13 23 -30 33 -39 9 -8 17
-23 17 -33 0 -10 5 -18 10 -18 6 0 15 -11 20 -25 5 -14 14 -25 20 -25 5 0 10
-6 10 -14 0 -8 16 -38 35 -67 19 -30 35 -57 35 -62 0 -5 7 -15 15 -23 8 -9 15
-24 15 -34 0 -10 7 -20 15 -24 8 -3 15 -12 15 -20 0 -8 6 -21 13 -28 6 -7 23
-35 37 -60 13 -26 30 -50 37 -52 7 -3 13 -16 13 -30 0 -13 7 -26 15 -30 8 -3
15 -14 15 -24 0 -10 5 -23 11 -29 14 -14 35 -49 51 -85 7 -16 16 -28 19 -28 4
0 10 -13 14 -30 4 -16 13 -30 21 -30 8 0 14 -8 14 -19 0 -10 7 -24 15 -31 8
-7 15 -20 15 -30 0 -10 7 -20 15 -24 8 -3 15 -17 15 -31 0 -15 6 -25 14 -25 8
0 17 -13 21 -30 4 -16 10 -30 15 -30 5 0 20 -25 35 -55 14 -30 30 -55 35 -55
6 0 10 -11 10 -25 0 -14 6 -28 14 -31 8 -3 18 -19 21 -35 4 -16 11 -29 16 -29
5 0 11 -11 15 -24 3 -14 12 -27 20 -30 8 -3 14 -15 14 -26 0 -11 4 -20 9 -20
5 0 14 -13 20 -30 5 -16 15 -30 20 -30 6 0 11 -9 11 -19 0 -11 6 -26 13 -33 7
-7 24 -35 37 -62 14 -27 30 -51 37 -53 7 -3 13 -16 13 -29 0 -14 7 -27 15 -30
8 -4 15 -15 15 -25 0 -10 4 -19 9 -19 5 0 14 -13 21 -30 7 -16 16 -30 20 -30
5 0 11 -13 15 -29 3 -16 13 -32 21 -35 8 -3 14 -14 14 -24 0 -11 7 -25 15 -32
8 -7 15 -18 15 -25 0 -7 7 -18 15 -25 8 -7 15 -21 15 -31 0 -11 5 -19 10 -19
6 0 24 -29 41 -65 17 -36 35 -65 40 -65 5 0 9 -9 9 -20 0 -11 4 -20 9 -20 5 0
14 -13 20 -30 5 -16 15 -30 20 -30 6 0 11 -11 11 -25 0 -14 7 -28 15 -31 8 -4
15 -12 15 -18 0 -7 9 -22 20 -34 11 -12 20 -26 20 -32 0 -6 7 -18 15 -26 8 -9
15 -24 15 -35 0 -10 7 -19 15 -19 9 0 15 -9 15 -25 0 -13 6 -28 13 -32 6 -4
23 -29 37 -56 14 -26 33 -63 43 -82 10 -19 23 -35 28 -35 5 0 9 -8 9 -18 0
-10 5 -23 11 -29 14 -14 35 -49 51 -85 7 -16 16 -28 19 -28 4 0 10 -14 14 -30
4 -16 13 -30 21 -30 8 0 14 -10 14 -25 0 -14 7 -28 15 -31 8 -4 15 -15 15 -25
0 -10 4 -19 9 -19 5 0 14 -13 21 -30 7 -16 16 -30 21 -30 5 0 9 -9 9 -20 0
-11 9 -28 20 -37 11 -10 20 -27 20 -39 0 -12 7 -24 15 -28 8 -3 15 -12 15 -19
0 -8 7 -20 15 -27 8 -7 15 -21 15 -31 0 -10 6 -22 13 -26 6 -4 25 -34 41 -65
16 -32 33 -58 38 -58 4 0 8 -7 8 -16 0 -8 7 -22 15 -30 8 -9 15 -24 15 -35 0
-10 7 -19 15 -19 8 0 15 -9 15 -19 0 -11 6 -26 13 -33 7 -7 24 -33 38 -58 13
-25 30 -51 37 -58 6 -7 12 -22 12 -33 0 -11 7 -22 15 -25 8 -4 15 -12 15 -19
0 -7 16 -37 35 -66 19 -30 35 -59 35 -65 0 -7 7 -14 15 -18 8 -3 15 -17 15
-31 0 -16 6 -25 15 -25 8 0 15 -9 15 -20 0 -11 7 -23 15 -26 8 -4 15 -17 15
-30 0 -13 5 -24 10 -24 6 0 24 -29 40 -65 16 -36 34 -65 40 -65 5 0 10 -9 10
-20 0 -11 7 -23 15 -26 8 -4 15 -13 15 -21 0 -8 9 -26 20 -40 11 -14 20 -32
20 -39 0 -8 5 -14 10 -14 6 0 10 -7 10 -15 0 -8 9 -24 20 -35 11 -11 20 -24
20 -29 0 -15 34 -75 48 -84 6 -4 12 -17 12 -27 0 -10 6 -23 13 -27 6 -4 23
-30 37 -58 14 -27 31 -56 38 -63 6 -7 12 -20 12 -28 0 -8 7 -17 15 -20 8 -4
15 -17 15 -30 0 -14 7 -27 15 -30 8 -4 15 -12 15 -19 0 -8 6 -20 14 -27 7 -8
17 -25 21 -38 4 -13 14 -30 21 -38 8 -7 14 -22 14 -31 0 -10 7 -24 15 -31 8
-7 15 -21 15 -31 0 -9 7 -24 15 -33 8 -8 15 -27 15 -43 0 -16 7 -38 15 -50 8
-12 18 -43 21 -70 4 -26 10 -52 14 -58 4 -5 11 -39 15 -75 4 -36 13 -84 21
-108 19 -59 19 -324 0 -379 -8 -22 -17 -74 -21 -116 -4 -43 -11 -77 -15 -77
-4 0 -11 -24 -14 -54 -4 -30 -14 -60 -22 -67 -8 -6 -14 -25 -14 -41 0 -16 -7
-36 -15 -44 -8 -9 -15 -26 -15 -38 0 -13 -7 -29 -15 -36 -8 -7 -15 -21 -15
-31 0 -9 -6 -24 -13 -31 -7 -7 -18 -24 -25 -38 -22 -43 -39 -71 -51 -83 -6 -6
-11 -19 -11 -29 0 -10 -7 -18 -15 -18 -8 0 -15 -9 -15 -20 0 -11 -6 -20 -14
-20 -8 0 -17 -12 -20 -26 -4 -15 -20 -38 -37 -53 -16 -14 -29 -31 -29 -38 0
-7 -7 -13 -15 -13 -8 0 -15 -7 -15 -15 0 -8 -7 -15 -15 -15 -8 0 -15 -5 -15
-10 0 -13 -77 -90 -90 -90 -6 0 -10 -7 -10 -15 0 -8 -5 -15 -10 -15 -6 0 -24
-14 -40 -30 -16 -17 -33 -30 -38 -30 -5 0 -17 -9 -27 -20 -10 -11 -24 -20 -32
-20 -7 0 -13 -4 -13 -10 0 -5 -6 -10 -13 -10 -8 0 -22 -9 -32 -20 -10 -11 -24
-20 -32 -20 -7 0 -16 -7 -19 -15 -4 -8 -17 -15 -30 -15 -14 0 -27 -7 -30 -15
-3 -8 -21 -17 -40 -21 -19 -3 -34 -10 -34 -15 0 -5 -6 -9 -13 -9 -7 0 -29 -9
-50 -20 -20 -11 -47 -20 -59 -20 -13 0 -32 -7 -42 -15 -11 -8 -34 -15 -50 -15
-17 0 -40 -7 -50 -15 -11 -9 -41 -15 -68 -15 -27 0 -65 -7 -86 -16 -55 -23
-448 -23 -511 0 -24 9 -62 16 -85 16 -22 0 -50 7 -60 15 -11 8 -34 15 -51 15
-17 0 -40 7 -51 15 -10 8 -33 15 -51 15 -17 0 -38 7 -47 15 -8 8 -18 15 -23
15 -4 1 -26 9 -48 20 -22 11 -45 19 -51 20 -7 0 -14 7 -18 15 -3 8 -16 15 -30
15 -13 0 -26 7 -30 15 -3 8 -12 15 -19 15 -12 0 -23 7 -73 49 -6 5 -20 12 -31
15 -12 4 -24 13 -27 21 -3 8 -15 15 -26 15 -11 0 -20 7 -20 15 0 8 -7 15 -15
15 -8 0 -15 7 -15 15 0 8 -5 15 -11 15 -14 0 -219 206 -219 220 0 5 -7 10 -15
10 -8 0 -15 8 -15 18 0 10 -13 32 -30 50 -16 18 -30 40 -30 48 0 8 -5 14 -10
14 -6 0 -16 12 -23 27 -6 16 -14 30 -17 33 -3 3 -11 16 -18 30 -22 43 -39 71
-51 83 -6 6 -11 19 -11 29 0 10 -7 21 -15 24 -8 4 -15 17 -15 30 0 13 -4 24
-10 24 -5 0 -16 16 -24 35 -8 19 -20 35 -25 35 -6 0 -11 8 -11 19 0 10 -7 24
-15 31 -8 7 -15 19 -15 27 0 7 -7 16 -15 19 -8 4 -15 17 -15 30 0 14 -7 27
-15 30 -8 4 -15 11 -15 18 0 6 -16 35 -35 65 -19 29 -35 59 -35 66 0 7 -7 15
-15 19 -8 3 -15 15 -15 26 0 11 -7 23 -15 26 -8 4 -15 13 -15 22 0 8 -6 23
-14 31 -8 9 -26 40 -41 69 -14 28 -30 52 -36 52 -5 0 -9 9 -9 19 0 11 -7 26
-15 35 -8 8 -15 21 -15 29 0 8 -9 22 -20 32 -11 10 -20 24 -20 32 0 7 -4 13
-9 13 -5 0 -12 13 -16 29 -3 16 -13 32 -21 35 -8 3 -14 16 -14 30 0 13 -7 26
-15 30 -8 3 -15 12 -15 19 0 8 -7 20 -15 27 -8 7 -15 21 -15 31 0 11 -7 19
-15 19 -8 0 -17 14 -21 35 -3 19 -10 35 -14 35 -4 0 -13 14 -19 30 -5 16 -15
30 -20 30 -6 0 -11 7 -11 16 0 8 -7 22 -15 30 -8 9 -15 24 -15 35 0 10 -6 19
-14 19 -8 0 -17 14 -21 30 -4 17 -11 30 -16 30 -5 0 -9 6 -9 13 0 8 -9 22 -20
32 -11 10 -20 24 -20 32 0 8 -7 21 -15 29 -8 9 -15 24 -15 34 0 10 -7 20 -15
24 -8 3 -15 13 -15 22 0 9 -9 27 -20 41 -11 14 -20 32 -20 39 0 8 -4 14 -10
14 -5 0 -12 11 -16 24 -3 14 -12 27 -20 30 -8 3 -14 14 -14 25 0 11 -6 24 -12
28 -14 9 -48 69 -48 84 0 6 -9 19 -20 31 -11 12 -20 28 -20 35 0 7 -4 13 -9
13 -5 0 -12 13 -16 29 -3 16 -13 32 -21 35 -8 3 -14 12 -14 19 0 8 -7 20 -15
27 -8 7 -15 21 -15 31 0 11 -5 19 -10 19 -6 0 -24 29 -41 65 -17 36 -35 65
-40 65 -5 0 -9 8 -9 19 0 10 -7 24 -15 31 -8 7 -15 21 -15 31 0 11 -7 19 -15
19 -9 0 -15 9 -15 25 0 14 -6 28 -14 31 -8 3 -18 19 -21 35 -4 16 -10 29 -13
29 -4 0 -18 21 -32 48 -14 26 -30 53 -37 60 -7 7 -13 22 -13 33 0 10 -5 19
-10 19 -6 0 -16 12 -23 28 -6 15 -14 29 -17 32 -9 9 -30 45 -45 78 -9 17 -20
32 -25 32 -6 0 -10 11 -10 25 0 14 -7 28 -15 31 -8 4 -15 11 -15 16 0 5 -9 22
-20 38 -11 15 -17 30 -13 33 3 4 -1 9 -10 13 -9 3 -19 18 -22 34 -3 16 -13 31
-21 34 -8 3 -14 16 -14 30 0 13 -6 26 -14 29 -8 3 -17 19 -21 36 -4 17 -11 33
-16 36 -16 10 -10 217 6 239 8 11 15 30 15 43 0 13 7 26 15 29 8 4 15 11 15
16 0 14 75 88 89 88 6 0 11 7 11 15 0 10 10 15 30 15 19 0 30 5 30 14 0 12 79
26 150 27 45 1 137 -16 148 -28 7 -7 22 -13 33 -13 10 0 19 -5 19 -10 0 -6 7
-13 15 -17 22 -8 95 -79 95 -92 0 -6 5 -11 10 -11 6 0 10 -7 10 -15 0 -8 9
-24 20 -35 11 -11 20 -24 20 -29 0 -15 34 -75 48 -84 6 -4 12 -19 12 -32 0
-14 4 -25 9 -25 6 0 22 -24 36 -52 15 -29 32 -60 39 -68 7 -8 16 -23 19 -32 4
-10 11 -18 17 -18 5 0 10 -11 10 -25 0 -14 7 -28 15 -31 8 -4 15 -12 15 -19 0
-7 16 -37 35 -66 19 -30 35 -59 35 -65 0 -7 7 -14 15 -18 8 -3 15 -15 15 -26
0 -11 7 -23 15 -26 8 -4 15 -14 15 -24 0 -10 7 -23 15 -30 9 -7 27 -37 41 -67
14 -29 30 -53 35 -53 5 0 9 -11 9 -25 0 -13 6 -28 13 -32 6 -4 22 -29 35 -55
13 -27 27 -48 32 -48 5 0 11 -13 15 -30 4 -16 11 -30 16 -30 5 0 9 -7 9 -15 0
-8 9 -24 20 -35 11 -11 20 -25 20 -31 0 -6 7 -17 15 -25 8 -9 15 -24 15 -35 0
-10 6 -19 14 -19 8 0 17 -12 21 -27 3 -15 10 -30 13 -33 9 -6 33 -48 67 -117
15 -29 31 -53 36 -53 5 0 9 -11 9 -25 0 -14 6 -28 13 -31 7 -2 24 -26 37 -52
14 -25 31 -53 38 -60 6 -7 12 -22 12 -33 0 -10 5 -19 11 -19 5 0 15 -14 20
-30 6 -17 15 -30 20 -30 5 0 9 -7 9 -15 0 -8 16 -38 35 -65 19 -27 35 -56 35
-64 0 -8 6 -16 14 -19 8 -3 17 -19 21 -36 4 -17 11 -31 16 -31 5 0 9 -7 9 -15
0 -8 9 -24 20 -35 11 -11 20 -27 20 -35 0 -8 4 -15 9 -15 5 0 12 -13 16 -30 4
-16 13 -30 21 -30 8 0 14 -8 14 -19 0 -10 7 -24 15 -31 8 -7 15 -20 15 -30 0
-10 7 -20 15 -24 8 -3 15 -17 15 -31 0 -15 6 -25 14 -25 8 0 17 -12 21 -27 3
-15 20 -47 36 -71 16 -23 29 -50 29 -58 0 -7 4 -14 10 -14 5 0 12 -11 16 -25
3 -14 11 -29 18 -33 13 -8 40 -54 57 -94 6 -16 15 -28 20 -28 5 0 9 -9 9 -19
0 -10 7 -21 15 -25 8 -3 15 -17 15 -31 0 -14 5 -25 11 -25 5 0 15 -13 20 -30
6 -16 15 -30 19 -30 4 0 11 -11 14 -25 4 -14 10 -25 15 -25 5 0 12 -13 16 -30
4 -16 13 -30 21 -30 8 0 14 -10 14 -25 0 -14 7 -28 15 -31 8 -4 15 -12 15 -19
0 -7 7 -18 15 -25 8 -7 15 -21 15 -32 0 -10 6 -21 14 -24 8 -3 18 -18 21 -34
3 -16 13 -31 21 -34 8 -3 14 -17 14 -31 0 -14 5 -25 10 -25 6 0 15 -10 21 -22
19 -43 36 -68 62 -92 15 -14 27 -28 27 -32 0 -11 77 -84 89 -84 6 0 11 -7 11
-15 0 -8 6 -15 13 -15 7 0 20 -9 30 -20 9 -11 24 -20 32 -20 8 0 15 -4 15 -8
0 -4 12 -13 28 -19 15 -7 34 -16 42 -21 44 -26 80 -42 97 -42 11 0 28 -7 39
-15 10 -8 40 -15 65 -15 25 0 67 -7 93 -16 54 -18 199 -15 219 5 6 6 35 11 65
11 34 0 59 5 68 15 9 8 26 15 39 15 13 0 30 7 39 15 8 8 24 15 36 15 19 0 65
27 98 58 7 6 18 12 23 12 5 0 23 13 39 30 16 16 34 30 40 30 5 0 10 5 10 10 0
13 37 50 50 50 6 0 10 9 10 20 0 11 5 20 10 20 16 0 59 53 60 73 0 9 5 17 11
17 5 0 15 13 20 30 6 17 15 30 20 30 5 0 9 11 9 24 0 14 6 31 14 39 8 8 18 32
22 53 3 21 10 44 15 49 4 6 13 62 20 124 9 87 9 137 0 219 -7 59 -16 111 -21
117 -4 5 -11 29 -15 53 -4 23 -11 42 -16 42 -5 0 -12 12 -15 27 -4 15 -13 34
-21 41 -7 7 -13 22 -13 33 0 11 -7 22 -15 25 -8 4 -15 14 -15 24 0 10 -7 25
-15 34 -8 8 -15 19 -15 24 0 5 -9 17 -20 27 -11 10 -20 26 -20 37 0 10 -4 18
-9 18 -5 0 -14 14 -20 30 -5 17 -15 30 -20 30 -6 0 -11 9 -11 19 0 11 -7 26
-15 35 -8 8 -20 25 -25 38 -16 34 -36 68 -49 81 -6 6 -11 19 -11 28 0 9 -7 19
-15 23 -8 3 -15 14 -15 24 0 10 -5 23 -11 29 -14 14 -35 49 -51 86 -7 15 -16
27 -19 27 -4 0 -10 14 -14 30 -4 17 -13 30 -21 30 -8 0 -14 9 -14 20 0 11 -4
20 -10 20 -5 0 -13 12 -16 26 -4 15 -15 35 -25 45 -11 11 -19 26 -19 34 0 8
-4 15 -9 15 -5 0 -12 14 -16 30 -4 17 -11 30 -16 30 -4 0 -20 25 -34 55 -15
30 -31 55 -36 55 -5 0 -9 11 -9 24 0 13 -6 26 -14 29 -7 3 -17 18 -21 34 -3
15 -10 30 -13 33 -16 12 -52 70 -52 84 0 7 -7 16 -15 20 -8 3 -15 17 -15 31 0
16 -6 25 -15 25 -8 0 -15 7 -15 15 0 8 -16 38 -35 65 -19 27 -35 56 -35 64 0
8 -7 16 -15 20 -8 3 -15 17 -15 30 0 14 -6 29 -12 33 -16 10 -35 39 -49 76 -6
15 -15 27 -19 27 -5 0 -11 13 -15 29 -3 16 -13 32 -21 35 -8 3 -14 15 -14 26
0 11 -7 23 -15 26 -8 4 -15 14 -15 24 0 10 -7 23 -15 30 -8 7 -15 19 -15 26 0
8 -9 23 -20 34 -11 11 -20 27 -20 35 0 8 -4 15 -9 15 -5 0 -12 14 -16 31 -4
17 -13 33 -21 36 -8 3 -14 13 -14 23 0 10 -7 23 -15 30 -8 7 -15 19 -15 27 0
7 -6 16 -14 19 -8 3 -18 19 -21 35 -4 16 -11 29 -16 29 -5 0 -9 7 -9 15 0 8
-9 24 -20 35 -11 11 -20 25 -20 31 0 6 -7 17 -15 25 -8 9 -15 24 -15 35 0 10
-7 19 -15 19 -9 0 -15 9 -15 25 0 13 -6 28 -13 32 -7 4 -18 19 -25 33 -22 43
-39 71 -51 83 -6 6 -11 19 -11 28 0 9 -7 19 -15 23 -8 3 -15 14 -15 24 0 10
-5 23 -11 29 -12 12 -29 40 -51 83 -7 14 -18 29 -25 33 -7 4 -13 19 -13 32 0
14 -5 25 -11 25 -5 0 -15 14 -20 30 -6 17 -15 30 -20 30 -5 0 -9 7 -9 15 0 8
-9 24 -20 35 -11 11 -20 27 -20 35 0 8 -4 15 -9 15 -5 0 -12 13 -16 29 -3 16
-13 32 -21 35 -8 3 -14 14 -14 24 0 11 -7 25 -15 32 -8 7 -15 19 -15 27 0 7
-7 16 -15 19 -8 4 -15 16 -15 29 0 13 -6 25 -14 28 -7 3 -17 18 -21 34 -3 15
-10 30 -13 33 -14 10 -52 69 -52 80 0 6 -7 13 -15 16 -8 4 -15 17 -15 30 0 14
-6 27 -14 30 -8 3 -18 19 -21 35 -4 16 -11 29 -16 29 -5 0 -9 6 -9 13 0 8 -9
24 -20 37 -11 13 -20 29 -20 35 0 7 -7 15 -15 19 -8 3 -15 16 -15 30 0 13 -7
26 -15 30 -8 3 -15 12 -15 20 0 8 -6 21 -12 28 -7 7 -24 36 -38 63 -14 28 -31
54 -37 58 -7 4 -13 19 -13 32 0 16 -6 25 -15 25 -8 0 -15 8 -15 19 0 10 -7 24
-15 31 -8 7 -15 21 -15 31 0 11 -6 19 -14 19 -8 0 -17 13 -21 29 -3 16 -13 32
-21 35 -8 3 -14 16 -14 30 0 13 -7 26 -15 30 -8 3 -15 12 -15 19 0 8 -7 20
-15 27 -8 7 -15 21 -15 32 0 10 -6 21 -14 24 -8 3 -18 19 -21 35 -4 16 -11 29
-16 29 -5 0 -9 7 -9 15 0 8 -9 24 -20 35 -11 11 -20 26 -20 34 0 7 -7 19 -15
26 -8 7 -15 21 -15 31 0 11 -7 19 -15 19 -9 0 -15 9 -15 25 0 13 -6 28 -13 32
-6 4 -22 29 -35 54 -12 26 -29 52 -37 59 -8 7 -15 21 -15 32 0 10 -7 21 -15
24 -8 4 -15 14 -15 23 0 9 -13 31 -30 49 -16 18 -30 37 -30 41 0 4 -9 16 -20
26 -11 10 -20 24 -20 32 0 7 -4 13 -8 13 -5 0 -29 18 -53 41 -71 66 -75 69
-87 69 -7 0 -12 5 -12 10 0 6 -7 10 -15 10 -8 0 -24 9 -35 20 -11 11 -26 20
-33 20 -7 0 -22 7 -33 15 -10 8 -29 15 -40 15 -12 0 -27 7 -34 15 -7 8 -29 15
-49 15 -20 0 -48 8 -61 17 -37 26 -333 26 -370 0 -13 -9 -40 -17 -58 -17 -18
0 -40 -7 -48 -15 -9 -8 -26 -15 -39 -15 -13 0 -30 -7 -39 -15 -8 -8 -21 -15
-29 -15 -8 0 -26 -9 -40 -20 -14 -11 -30 -20 -36 -20 -6 0 -11 -4 -11 -9 0 -5
-8 -12 -19 -16 -10 -3 -31 -19 -47 -35 -16 -16 -35 -30 -41 -30 -7 0 -13 -7
-13 -15 0 -8 -7 -15 -15 -15 -8 0 -15 -4 -15 -9 0 -14 -52 -91 -62 -91 -4 0
-8 -7 -8 -15 0 -8 -7 -15 -15 -15 -9 0 -15 -9 -15 -25 0 -14 -7 -28 -15 -31
-8 -3 -17 -16 -21 -27 -4 -12 -19 -41 -35 -65 -16 -24 -29 -49 -29 -56 0 -8
-7 -16 -15 -20 -8 -3 -15 -14 -15 -24 0 -11 -7 -25 -15 -32 -8 -7 -15 -19 -15
-26 0 -8 -9 -23 -20 -34 -11 -11 -20 -27 -20 -35 0 -8 -4 -15 -9 -15 -5 0 -12
-13 -16 -30 -4 -16 -13 -30 -21 -30 -8 0 -14 -8 -14 -19 0 -10 -7 -24 -15 -31
-8 -7 -15 -21 -15 -31 0 -11 -5 -19 -10 -19 -6 0 -24 -29 -41 -65 -17 -36 -35
-65 -40 -65 -5 0 -9 -8 -9 -19 0 -10 -7 -24 -15 -31 -8 -7 -15 -19 -15 -27 0
-7 -7 -16 -15 -19 -8 -4 -15 -17 -15 -30 0 -12 -6 -27 -13 -31 -6 -4 -22 -29
-35 -54 -12 -26 -29 -52 -37 -59 -8 -7 -15 -20 -15 -30 0 -10 -7 -20 -15 -24
-8 -3 -15 -17 -15 -31 0 -14 -5 -25 -11 -25 -5 0 -15 -13 -20 -30 -6 -16 -15
-30 -20 -30 -5 0 -9 -6 -9 -13 0 -8 -9 -24 -20 -37 -11 -13 -20 -29 -20 -37 0
-7 -7 -16 -15 -19 -8 -4 -15 -14 -15 -24 0 -10 -6 -25 -12 -32 -18 -19 -48
-69 -55 -90 -3 -10 -9 -18 -13 -18 -5 0 -11 -13 -15 -29 -3 -16 -13 -32 -21
-35 -8 -3 -14 -16 -14 -30 0 -13 -7 -26 -15 -30 -8 -3 -15 -12 -15 -19 0 -8
-7 -20 -15 -27 -8 -7 -15 -19 -15 -26 0 -8 -9 -23 -20 -34 -11 -11 -20 -27
-20 -35 0 -8 -4 -15 -9 -15 -5 0 -12 -14 -16 -31 -4 -17 -13 -33 -21 -36 -8
-3 -14 -14 -14 -24 0 -10 -4 -19 -9 -19 -5 0 -14 -13 -20 -30 -5 -16 -14 -30
-20 -30 -5 0 -12 -13 -16 -30 -4 -16 -11 -30 -16 -30 -5 0 -9 -7 -9 -15 0 -8
-9 -24 -20 -35 -11 -11 -20 -27 -20 -35 0 -8 -4 -15 -9 -15 -5 0 -14 -13 -20
-30 -5 -16 -15 -30 -20 -30 -6 0 -11 -9 -11 -19 0 -11 -13 -39 -29 -63 -15
-24 -39 -63 -52 -88 -13 -25 -30 -49 -36 -53 -7 -4 -13 -17 -13 -27 0 -10 -4
-21 -9 -25 -6 -3 -16 -18 -24 -33 -26 -52 -42 -77 -54 -85 -7 -4 -13 -19 -13
-32 0 -14 -5 -25 -11 -25 -5 0 -15 -13 -20 -30 -6 -16 -15 -30 -20 -30 -5 0
-9 -9 -9 -20 0 -11 -4 -20 -9 -20 -5 0 -14 -13 -21 -30 -7 -16 -16 -30 -20
-30 -5 0 -11 -13 -15 -29 -3 -16 -13 -32 -21 -35 -8 -3 -14 -14 -14 -24 0 -11
-7 -25 -15 -32 -8 -7 -15 -19 -15 -27 0 -7 -7 -16 -15 -19 -9 -4 -15 -19 -15
-35 0 -18 -5 -29 -14 -29 -8 0 -17 -13 -21 -30 -4 -16 -11 -30 -16 -30 -5 0
-9 -6 -9 -13 0 -8 -9 -22 -20 -32 -11 -10 -20 -27 -20 -37 0 -10 -7 -21 -15
-24 -8 -4 -15 -17 -15 -30 0 -14 -6 -24 -14 -24 -8 0 -17 -13 -21 -29 -3 -16
-13 -35 -21 -42 -8 -6 -14 -17 -14 -24 0 -7 -7 -18 -15 -25 -8 -7 -15 -20 -15
-30 0 -10 -7 -20 -15 -24 -8 -3 -15 -15 -15 -26 0 -11 -7 -23 -15 -26 -8 -4
-15 -12 -15 -19 0 -7 -16 -37 -35 -66 -19 -30 -35 -59 -35 -65 0 -7 -7 -14
-15 -18 -8 -3 -15 -16 -15 -30 0 -13 -7 -26 -15 -30 -8 -3 -15 -12 -15 -19 0
-8 -7 -20 -15 -27 -8 -7 -15 -21 -15 -32 0 -10 -6 -21 -14 -24 -8 -3 -19 -19
-25 -35 -5 -16 -15 -29 -20 -29 -6 0 -11 -11 -11 -25 0 -14 -4 -25 -10 -25 -5
0 -21 -25 -35 -55 -15 -30 -30 -55 -35 -55 -5 0 -11 -13 -15 -30 -4 -16 -11
-30 -16 -30 -5 0 -9 -7 -9 -15 0 -8 -9 -24 -20 -35 -11 -11 -20 -24 -20 -29 0
-15 -34 -75 -47 -84 -7 -4 -13 -17 -13 -28 0 -11 -6 -22 -14 -25 -8 -3 -18
-19 -21 -35 -4 -16 -10 -29 -14 -29 -4 0 -19 -25 -35 -55 -15 -30 -32 -55 -37
-55 -5 0 -9 -11 -9 -25 0 -13 -6 -28 -13 -32 -7 -4 -18 -19 -25 -33 -15 -32
-33 -60 -49 -78 -7 -7 -13 -22 -13 -32 0 -10 -7 -20 -15 -24 -8 -3 -15 -15
-15 -26 0 -11 -7 -23 -15 -26 -8 -4 -15 -14 -15 -24 0 -10 -7 -23 -15 -30 -8
-7 -15 -18 -15 -24 -1 -6 -9 -29 -20 -51 -11 -22 -19 -47 -20 -56 0 -8 -7 -24
-15 -35 -8 -11 -14 -42 -15 -74 0 -30 -4 -69 -8 -85 -11 -38 9 -287 24 -306 7
-8 15 -33 19 -56 4 -24 11 -43 15 -43 5 0 11 -13 15 -29 3 -16 13 -35 21 -42
8 -6 14 -22 14 -35 0 -14 6 -24 14 -24 8 0 17 -11 20 -25 4 -14 11 -25 16 -25
6 0 10 -9 10 -20 0 -11 7 -20 15 -20 8 0 15 -4 15 -8 0 -14 45 -62 58 -62 7 0
12 -7 12 -15 0 -8 7 -15 15 -15 8 0 15 -7 15 -15 0 -8 6 -15 13 -15 8 0 22 -9
32 -20 10 -11 22 -20 28 -20 5 0 29 -13 54 -30 24 -16 51 -30 59 -30 9 0 22
-7 30 -15 9 -8 27 -15 42 -15 15 0 36 -7 46 -15 13 -10 43 -15 82 -15 35 0 66
-4 69 -10 3 -5 46 -10 95 -10 49 0 92 5 95 10 3 6 33 10 66 10 40 0 65 5 75
15 9 8 30 15 49 15 20 0 35 6 39 15 3 8 17 15 31 15 14 0 35 9 47 20 12 11 28
20 35 20 7 0 13 5 13 10 0 6 7 10 15 10 8 0 23 9 32 20 10 11 23 20 29 20 7 0
14 7 18 15 3 8 12 15 21 15 8 0 15 5 15 10 0 13 37 50 50 50 6 0 10 6 10 13 0
6 14 25 31 41 16 17 32 40 35 53 4 13 12 23 20 23 8 0 14 9 14 19 0 11 7 26
15 35 8 8 15 21 15 28 0 7 7 22 15 32 8 11 15 33 15 49 0 15 6 35 14 43 8 8
17 40 21 71 3 32 11 77 17 100 6 24 8 64 5 90 -19 171 -30 229 -43 239 -8 6
-14 25 -14 43 0 17 -4 31 -8 31 -5 0 -14 18 -21 40 -6 22 -16 40 -21 40 -6 0
-10 9 -10 20 0 11 -7 23 -15 26 -8 3 -17 22 -21 42 -4 21 -11 43 -17 50 -14
18 -14 187 0 204 6 7 13 30 17 51 4 23 13 37 21 37 8 0 15 7 15 15 0 19 31 55
47 55 7 0 13 7 13 15 0 8 6 15 14 15 8 0 16 7 20 15 3 8 12 15 19 15 8 0 20 7
27 15 7 8 27 15 44 15 18 0 41 7 52 15 25 19 124 20 150 0 10 -8 33 -15 51
-15 18 0 36 -6 40 -12 4 -7 24 -22 43 -32 47 -25 89 -67 90 -87 0 -9 7 -19 15
-23 8 -3 15 -12 15 -21 0 -8 4 -15 9 -15 5 0 15 -16 22 -35 7 -19 16 -35 20
-35 4 0 10 -12 13 -26 4 -15 14 -33 21 -41 8 -8 15 -25 15 -37 0 -13 7 -29 15
-36 8 -7 15 -25 15 -40 0 -15 7 -33 15 -40 9 -7 15 -29 15 -54 0 -23 6 -50 14
-61 7 -11 17 -49 21 -85 4 -36 11 -72 16 -81 13 -26 21 -298 10 -389 -14 -121
-35 -231 -49 -257 -7 -12 -12 -37 -12 -56 0 -19 -7 -40 -15 -47 -8 -7 -15 -25
-15 -40 0 -15 -7 -33 -15 -40 -8 -7 -15 -26 -15 -42 0 -16 -6 -31 -15 -34 -8
-4 -15 -12 -15 -19 0 -20 -50 -115 -61 -115 -5 0 -9 -8 -9 -19 0 -10 -7 -24
-15 -31 -8 -7 -15 -18 -15 -25 0 -7 -7 -15 -15 -19 -8 -3 -15 -12 -15 -19 0
-8 -9 -22 -20 -32 -11 -10 -20 -24 -20 -32 0 -7 -7 -13 -15 -13 -8 0 -15 -7
-15 -15 0 -9 -7 -18 -15 -21 -8 -4 -15 -12 -15 -20 0 -8 -7 -14 -15 -14 -8 0
-15 -5 -15 -10 0 -14 -105 -120 -119 -120 -6 0 -11 -7 -11 -15 0 -8 -7 -15
-15 -15 -8 0 -15 -7 -15 -15 0 -8 -7 -15 -15 -15 -9 0 -18 -7 -21 -15 -4 -8
-12 -15 -19 -15 -6 0 -20 -9 -30 -20 -10 -11 -24 -20 -32 -20 -7 0 -13 -4 -13
-10 0 -5 -6 -10 -13 -10 -8 0 -22 -9 -32 -20 -10 -11 -26 -20 -37 -20 -10 0
-18 -7 -18 -15 0 -10 -10 -15 -29 -15 -16 0 -31 -6 -34 -14 -3 -8 -19 -17 -36
-21 -17 -4 -31 -11 -31 -15 0 -5 -16 -12 -35 -16 -19 -3 -39 -12 -46 -20 -6
-8 -26 -14 -44 -14 -19 0 -35 -5 -37 -11 -2 -6 -28 -15 -58 -20 -30 -5 -56
-13 -58 -19 -2 -5 -30 -10 -61 -10 -32 0 -71 -7 -88 -15 -45 -23 -454 -23
-488 -1 -15 10 -47 16 -84 16 -33 0 -61 5 -63 10 -2 6 -28 14 -58 19 -30 5
-56 14 -58 20 -2 6 -18 11 -37 11 -18 0 -38 7 -45 15 -7 8 -20 15 -29 15 -9 1
-34 9 -56 20 -22 11 -46 19 -52 20 -7 0 -13 7 -13 15 0 9 -9 15 -25 15 -14 0
-28 7 -31 15 -4 8 -15 15 -25 15 -10 0 -19 5 -19 10 0 6 -12 16 -28 23 -31 14
-46 25 -70 50 -9 9 -24 17 -33 17 -9 0 -19 7 -23 15 -3 8 -12 15 -21 15 -8 0
-15 7 -15 15 0 8 -5 15 -11 15 -15 0 -89 74 -89 89 0 6 -4 11 -10 11 -13 0
-50 37 -50 50 0 6 -7 10 -15 10 -8 0 -15 3 -15 8 0 4 -16 25 -35 46 -19 22
-35 46 -35 53 0 8 -7 16 -15 19 -8 4 -15 11 -15 17 0 6 -7 17 -16 26 -28 29
-84 122 -84 141 0 10 -7 20 -15 24 -8 3 -15 16 -15 30 0 13 -7 26 -15 30 -9 3
-15 18 -15 34 0 16 -6 35 -14 41 -8 7 -17 30 -21 52 -4 21 -10 39 -15 39 -4 0
-10 18 -14 41 -4 23 -13 54 -21 70 -8 15 -15 49 -15 74 0 25 -7 68 -16 95 -13
40 -15 87 -12 256 2 154 6 208 16 212 7 2 12 22 12 53 0 27 6 65 14 84 8 19
18 55 21 80 4 25 11 45 15 45 5 0 11 18 15 39 4 22 13 45 21 52 8 6 14 25 14
41 0 16 6 31 15 34 8 4 15 14 15 24 0 10 7 25 15 34 8 8 15 19 15 25 0 5 16
37 35 70 19 32 35 64 35 70 0 6 7 11 15 11 9 0 15 9 15 25 0 14 7 28 15 31 8
4 15 13 15 20 0 14 36 72 52 84 3 3 9 17 13 32 4 15 13 29 21 32 8 3 14 14 14
24 0 11 7 25 15 32 8 7 15 18 15 25 0 7 7 18 15 25 8 7 15 21 15 31 0 11 5 19
10 19 6 0 24 29 40 65 16 36 34 65 40 65 5 0 10 8 10 19 0 10 7 24 15 31 8 7
15 19 15 27 0 7 7 16 15 19 8 4 15 17 15 30 0 12 6 27 13 31 7 4 18 20 24 36
7 15 17 27 23 27 5 0 10 7 10 16 0 8 7 22 15 30 8 9 15 24 15 35 0 10 7 19 15
19 9 0 15 9 15 25 0 14 7 28 15 31 8 4 15 11 15 18 0 6 16 35 35 65 19 29 35
61 35 72 0 10 7 19 15 19 8 0 15 9 15 19 0 11 7 26 15 35 8 8 15 20 15 26 0 6
9 20 20 32 11 12 20 28 20 35 0 7 4 13 9 13 5 0 12 13 16 29 3 16 13 32 21 35
8 3 14 15 14 26 0 11 7 23 15 26 8 4 15 14 15 24 0 10 7 23 15 30 9 7 27 37
40 67 14 29 29 53 35 53 5 0 10 9 10 19 0 11 7 26 15 35 8 8 15 21 15 29 0 8
7 17 15 21 8 3 15 17 15 31 0 15 6 25 14 25 8 0 17 14 21 30 4 17 10 30 14 30
3 0 12 12 19 28 16 36 37 71 51 85 6 6 11 19 11 29 0 10 7 21 15 24 8 4 15 17
15 30 0 13 4 24 8 24 11 0 62 78 62 95 0 7 7 15 15 19 8 3 15 15 15 26 0 11 7
23 15 26 8 4 15 14 15 24 0 10 7 25 15 34 8 8 19 25 25 38 15 34 33 62 48 71
6 4 12 19 12 32 0 14 4 25 9 25 5 0 21 25 36 55 14 30 30 55 34 55 5 0 12 14
16 30 4 17 10 30 15 30 5 0 11 14 15 30 4 17 13 30 21 30 8 0 14 8 14 19 0 10
7 24 15 31 8 7 15 21 15 31 0 11 5 19 10 19 6 0 16 12 23 28 6 15 14 29 17 32
3 3 11 16 18 30 6 14 17 34 24 45 22 39 28 50 38 73 5 12 14 22 20 22 5 0 10
11 10 25 0 14 5 25 10 25 6 0 15 12 21 27 5 14 23 46 39 70 17 24 30 50 30 57
0 8 7 16 15 20 8 3 15 15 15 26 0 11 7 23 15 26 8 4 15 12 15 20 0 8 16 37 35
64 19 27 35 56 35 64 0 8 7 16 15 20 8 3 15 15 15 26 0 11 7 23 15 26 8 4 15
14 15 24 0 10 7 23 15 30 8 7 15 18 15 26 0 7 6 19 13 26 7 7 18 25 24 41 7
15 17 27 23 27 5 0 10 11 10 25 0 14 7 28 15 31 8 4 15 14 15 24 0 10 7 23 15
30 8 7 15 21 15 31 0 11 6 19 14 19 8 0 17 12 21 27 3 15 10 30 13 33 10 7 39
59 53 93 6 15 15 27 20 27 5 0 9 9 9 20 0 11 6 23 14 26 8 3 18 19 21 35 4 16
10 29 15 29 4 0 13 14 19 30 5 17 15 30 20 30 6 0 11 7 11 16 0 8 7 22 15 30
8 9 15 24 15 35 0 10 7 19 15 19 9 0 15 9 15 25 0 14 7 28 15 31 8 4 15 11 15
18 0 6 16 35 35 65 19 29 35 59 35 66 0 7 7 15 15 19 8 3 15 14 15 24 0 11 7
25 15 32 8 7 15 16 15 20 0 13 53 90 62 90 4 0 8 11 8 25 0 14 7 28 15 31 8 4
15 12 15 19 0 7 7 15 15 19 8 3 15 11 15 18 0 7 16 30 35 51 19 21 35 42 35
48 0 5 7 9 15 9 8 0 15 7 15 15 0 8 7 15 15 15 8 0 15 7 15 15 0 8 7 15 15 15
8 0 15 4 15 10 0 12 48 60 60 60 6 0 10 7 10 15 0 8 7 15 15 15 9 0 18 7 21
15 4 8 12 15 19 15 7 0 28 15 47 33 18 17 52 41 76 52 23 11 42 26 42 33 0 7
13 12 30 12 17 0 30 4 30 9 0 9 57 40 113 60 15 6 27 15 27 21 0 5 12 10 28
10 15 0 36 7 46 15 11 8 32 15 47 15 14 0 32 7 39 15 8 9 30 15 57 15 24 0 58
8 76 17 23 11 69 18 159 22 69 3 130 10 135 14 4 5 26 6 48 2 22 -3 101 -9
175 -14z m-2476 -8685 c38 -34 37 -108 -1 -144 -23 -21 -37 -25 -93 -25 -57
-1 -70 3 -90 23 -19 19 -23 33 -22 76 2 78 19 92 109 93 62 1 75 -2 97 -23z
m-1330 -61 c3 -8 12 -15 19 -15 8 0 19 -16 25 -36 16 -54 -6 -84 -63 -84 -56
0 -105 -10 -105 -22 0 -5 -9 -18 -20 -30 -11 -12 -20 -34 -20 -50 0 -36 41
-58 108 -58 42 0 52 -4 66 -25 21 -32 20 -70 -1 -95 -14 -16 -30 -20 -77 -20
-96 0 -96 -1 -96 -207 0 -147 -2 -173 -15 -173 -8 0 -15 -7 -15 -15 0 -13 -11
-15 -57 -13 -52 3 -59 6 -71 31 -7 15 -17 27 -23 27 -5 0 -9 70 -9 170 l0 169
-42 12 c-52 14 -58 21 -58 81 0 47 0 47 38 54 56 10 62 19 62 89 0 43 5 66 15
75 8 7 15 21 15 31 0 21 64 89 83 89 7 0 22 7 33 15 28 21 199 21 208 0z
m-1020 -30 c11 -8 28 -15 38 -15 10 0 18 -7 18 -15 0 -8 7 -15 15 -15 8 0 15
-6 15 -14 0 -8 7 -16 15 -20 8 -3 15 -12 15 -19 0 -8 6 -20 14 -26 8 -7 17
-27 20 -46 4 -19 11 -35 15 -35 5 0 12 -27 16 -61 4 -33 13 -73 21 -87 20 -39
20 -432 0 -432 -8 0 -16 -7 -20 -15 -4 -11 -21 -15 -63 -15 -63 1 -103 23
-103 57 0 11 -7 43 -15 72 l-16 52 -92 -3 -92 -3 -5 -65 c-7 -88 -26 -110 -97
-110 -40 0 -58 5 -73 20 -19 19 -20 33 -20 204 0 116 4 195 12 213 6 15 14 57
18 93 5 35 13 66 19 68 6 2 11 19 11 38 0 19 5 34 11 34 5 0 15 14 20 30 6 17
15 30 19 30 5 0 12 9 15 20 3 11 13 20 21 20 8 0 14 7 14 15 0 9 9 15 25 15
14 0 28 7 31 15 8 21 151 21 178 0z m5010 0 c11 -8 28 -15 37 -15 10 0 22 -6
26 -14 4 -8 17 -15 28 -17 11 -3 25 -15 32 -28 6 -14 19 -28 27 -33 9 -5 16
-18 16 -28 0 -10 5 -22 10 -25 6 -3 10 -37 10 -76 0 -52 -3 -69 -14 -69 -8 0
-16 -7 -20 -15 -4 -11 -21 -15 -66 -15 -47 0 -60 3 -60 15 0 8 -7 15 -15 15
-10 0 -15 10 -15 30 0 17 -4 30 -10 30 -5 0 -12 16 -16 35 -3 20 -12 35 -20
35 -8 0 -14 7 -14 15 0 11 -12 15 -44 15 -30 0 -46 -5 -50 -15 -3 -8 -12 -15
-21 -15 -8 0 -15 -8 -15 -18 0 -10 -7 -27 -15 -38 -11 -15 -14 -53 -15 -172 0
-162 4 -182 54 -239 32 -38 136 -25 136 16 0 11 6 24 14 28 8 4 16 19 18 33 5
37 71 58 127 41 24 -7 41 -18 41 -26 0 -8 5 -15 10 -15 15 0 12 -64 -5 -96 -8
-16 -15 -37 -15 -46 0 -10 -7 -18 -15 -18 -8 0 -15 -4 -15 -10 0 -17 -39 -50
-60 -50 -10 0 -23 -8 -29 -17 -8 -16 -27 -18 -149 -18 -119 0 -143 3 -159 18
-11 9 -25 17 -31 17 -15 0 -52 36 -52 50 0 6 -7 10 -16 10 -9 0 -18 9 -21 20
-3 11 -9 20 -13 20 -4 0 -13 20 -19 44 -6 25 -15 48 -21 51 -6 4 -10 73 -10
176 0 150 2 173 20 206 11 21 20 43 20 50 0 7 5 13 10 13 6 0 10 6 10 14 0 21
61 86 81 86 9 0 19 7 23 15 3 8 16 15 28 15 13 0 32 7 42 15 27 21 193 20 220
0z m4536 1 c0 -7 7 -19 15 -26 10 -8 15 -31 15 -72 0 -66 -3 -64 91 -73 65 -6
67 -7 73 -37 3 -18 4 -46 0 -63 -6 -32 -7 -32 -82 -41 l-77 -9 -3 -166 -2
-167 77 -17 c43 -9 86 -24 96 -33 21 -19 23 -70 2 -78 -8 -4 -15 -12 -15 -20
0 -32 -222 -33 -257 -1 -11 9 -27 17 -35 17 -9 0 -21 14 -28 30 -7 17 -16 30
-21 30 -5 0 -9 84 -9 188 -1 207 -4 219 -62 231 -33 7 -33 8 -36 68 -3 59 -2
60 25 67 49 10 64 30 70 89 5 49 9 57 34 68 16 6 29 15 29 20 0 5 23 9 50 9
36 0 50 -4 50 -14z m-7756 -161 c3 -8 12 -15 21 -15 8 0 15 -7 15 -15 0 -8 4
-15 10 -15 5 0 12 -16 16 -36 10 -55 -26 -121 -71 -130 -18 -3 -43 -3 -54 1
-25 8 -90 -22 -99 -44 -3 -9 -10 -19 -16 -23 -7 -5 -12 -71 -14 -178 -3 -139
-6 -170 -18 -170 -8 0 -14 -7 -14 -15 0 -12 -14 -15 -65 -15 -51 0 -65 3 -65
15 0 8 -7 15 -15 15 -13 0 -15 38 -15 285 0 281 0 285 22 307 32 32 119 32
148 1 11 -12 20 -29 20 -37 0 -25 18 -28 31 -4 35 65 146 115 163 73z m1302 0
c16 -8 41 -15 57 -15 17 0 27 -5 27 -15 0 -8 6 -15 13 -15 14 0 47 -35 47 -50
0 -5 7 -13 16 -18 9 -5 17 -29 21 -64 5 -49 3 -57 -18 -76 -32 -30 -93 -30
-125 1 -13 12 -24 27 -24 33 0 6 -16 25 -35 42 -37 31 -37 31 -107 6 -10 -4
-18 -12 -18 -19 0 -7 -7 -18 -15 -25 -12 -10 -15 -37 -15 -127 0 -92 3 -115
15 -119 8 -4 15 -12 15 -19 0 -36 111 -63 124 -30 3 8 12 15 20 15 7 0 17 11
20 25 16 63 148 66 161 4 8 -37 -3 -89 -21 -96 -8 -3 -14 -9 -14 -14 0 -10
-37 -49 -47 -49 -3 0 -15 -8 -26 -17 -16 -15 -40 -18 -159 -18 -122 0 -141 2
-149 18 -6 9 -15 17 -20 17 -14 0 -79 67 -79 82 0 6 -8 16 -17 23 -15 11 -17
34 -17 178 0 143 2 168 17 185 9 10 17 25 17 32 0 17 60 80 76 80 6 0 14 7 18
15 3 8 18 15 33 15 15 0 39 7 53 14 34 19 121 19 156 1z m914 5 c0 -5 18 -13
41 -16 22 -4 46 -13 54 -20 7 -8 18 -14 24 -14 6 0 11 -7 11 -15 0 -7 7 -18
15 -22 24 -14 36 -95 45 -293 8 -190 5 -215 -31 -262 -20 -25 -137 -28 -154
-4 -16 21 -40 20 -92 -5 -36 -17 -58 -20 -126 -18 -76 4 -86 7 -125 37 -23 19
-42 40 -42 47 0 7 -7 15 -15 19 -11 4 -15 22 -15 69 0 45 5 68 15 77 8 7 15
19 15 27 0 7 7 16 15 19 8 4 15 12 15 20 0 8 9 14 20 14 11 0 20 4 20 10 0 5
19 14 43 21 23 6 47 15 53 20 5 4 50 9 99 11 101 3 102 4 90 84 -4 26 -12 44
-19 44 -8 0 -19 7 -26 15 -14 17 -35 19 -53 5 -37 -30 -67 -58 -67 -64 0 -3
-9 -15 -20 -26 -32 -32 -100 -27 -139 9 -34 32 -39 61 -16 85 8 8 15 19 15 25
0 14 37 51 50 51 6 0 13 7 16 15 4 9 19 15 38 15 18 0 41 7 52 15 22 17 194
22 194 5z m1910 -5 c14 -8 35 -14 47 -15 12 0 28 -7 37 -15 8 -8 19 -15 25
-15 6 0 11 -4 11 -10 0 -5 13 -22 29 -38 17 -16 32 -43 37 -66 4 -22 13 -51
20 -65 19 -36 18 -187 -1 -224 -8 -15 -17 -43 -21 -61 -3 -18 -19 -48 -35 -65
-16 -18 -29 -36 -29 -42 0 -5 -8 -9 -17 -9 -9 0 -25 -8 -36 -17 -16 -15 -39
-18 -152 -18 -112 0 -136 3 -152 18 -11 9 -25 17 -31 17 -14 0 -62 44 -62 57
0 6 -7 16 -15 23 -8 7 -15 22 -15 34 0 12 -7 31 -15 42 -11 14 -14 48 -14 134
0 86 3 120 14 134 8 11 15 30 15 42 0 13 7 29 15 38 8 8 15 18 15 21 0 10 43
55 53 55 5 0 15 7 23 15 9 8 25 15 38 15 12 0 31 7 42 15 25 19 140 19 174 0z
m1025 -3 c61 -21 95 -49 95 -78 0 -12 7 -27 15 -34 13 -10 15 -51 15 -252 0
-235 0 -241 -22 -264 -32 -33 -118 -34 -150 -2 -22 22 -23 33 -28 213 -7 238
-10 245 -92 245 -50 0 -58 -3 -58 -19 0 -10 -6 -21 -14 -24 -12 -5 -15 -43
-18 -199 -3 -185 -4 -194 -25 -216 -30 -29 -117 -31 -151 -2 l-23 19 0 281 c0
164 5 288 10 299 12 21 69 33 123 25 29 -5 40 -13 53 -40 18 -38 34 -44 42
-14 3 11 11 20 18 20 7 0 15 7 19 15 3 8 16 15 28 15 13 0 32 7 42 15 26 20
61 19 121 -3z m988 -3 c20 -8 37 -20 37 -26 0 -7 6 -13 13 -13 6 -1 22 -17 35
-36 21 -34 22 -43 22 -290 0 -221 -2 -254 -15 -254 -9 0 -18 -7 -21 -15 -5
-11 -21 -15 -60 -15 -43 0 -59 5 -76 22 -22 22 -23 31 -26 217 -4 230 -8 240
-84 241 -45 0 -49 -2 -73 -40 -24 -38 -25 -47 -25 -187 0 -169 -7 -223 -26
-223 -8 0 -14 -7 -14 -15 0 -12 -13 -15 -60 -15 -45 0 -62 4 -66 15 -4 8 -12
15 -20 15 -12 0 -14 48 -14 285 0 255 2 287 17 305 22 25 65 33 123 23 41 -8
45 -11 48 -41 4 -41 16 -40 58 3 18 19 42 35 52 35 10 0 27 7 38 15 22 17 78
15 137 -6z m843 6 c16 -8 39 -15 50 -15 12 0 27 -7 34 -15 7 -8 16 -15 21 -15
13 0 59 -50 59 -64 0 -8 7 -19 15 -26 8 -7 15 -24 15 -38 0 -14 8 -49 17 -79
16 -50 16 -55 0 -88 l-17 -35 -172 0 c-169 -1 -208 -7 -208 -36 0 -24 35 -94
46 -94 8 0 14 -4 14 -9 0 -14 41 -21 83 -14 23 3 50 17 67 35 25 24 38 29 80
30 41 0 54 -4 70 -24 23 -28 25 -51 5 -72 -8 -8 -15 -18 -15 -23 0 -10 -37
-43 -47 -43 -3 0 -15 -8 -26 -17 -16 -15 -40 -18 -161 -18 -122 0 -145 2 -160
18 -10 9 -26 17 -37 17 -10 0 -19 7 -19 15 0 8 -6 15 -12 15 -12 0 -58 87 -58
110 0 6 -7 21 -16 35 -31 48 -1 318 38 333 4 2 8 8 8 14 0 11 46 58 56 58 3 0
12 7 20 15 9 8 28 15 43 15 15 0 36 7 47 15 25 19 123 19 160 0z m-6468 -15
c21 0 31 -9 45 -36 15 -30 17 -67 17 -289 0 -140 -3 -255 -7 -255 -5 0 -16
-14 -25 -30 -15 -27 -22 -30 -67 -30 -52 0 -91 21 -91 48 0 7 -7 20 -15 28
-22 22 -22 485 -1 504 8 6 16 21 18 33 2 16 12 24 38 28 19 4 41 5 48 3 8 -2
26 -4 40 -4z"/>
<path d="M1538 2739 c-24 -17 -28 -28 -28 -68 0 -26 -5 -52 -11 -58 -6 -6 -12
-51 -12 -99 l-2 -89 99 -3 99 -3 -6 106 c-5 70 -12 114 -22 128 -8 12 -15 34
-15 50 0 23 -7 31 -35 43 -41 17 -34 18 -67 -7z"/>
<path d="M5550 2370 c0 -5 -8 -10 -18 -10 -26 0 -62 -42 -62 -71 0 -41 37 -64
97 -62 72 3 103 34 103 104 l0 49 -60 0 c-33 0 -60 -4 -60 -10z"/>
<path d="M7464 2595 c-4 -8 -12 -15 -19 -15 -23 0 -35 -148 -20 -262 5 -40 12
-58 22 -58 7 0 16 -7 19 -15 9 -24 80 -19 105 6 44 44 47 329 3 329 -8 0 -14
7 -14 15 0 11 -12 15 -45 15 -31 0 -47 -5 -51 -15z"/>
<path d="M10337 2613 c-21 -3 -32 -15 -48 -48 -34 -73 -28 -80 79 -83 l92 -3
0 51 c0 38 -4 50 -15 50 -8 0 -15 7 -15 15 0 8 -6 15 -12 15 -7 0 -22 2 -33 4
-11 2 -32 1 -48 -1z"/>
</g>
</svg>
